<?xml version="1.0" standalone="no"?>
<!DOCTYPE svg PUBLIC "-//W3C//DTD SVG 20010904//EN"
 "http://www.w3.org/TR/2001/REC-SVG-20010904/DTD/svg10.dtd">
<svg version="1.0" xmlns="http://www.w3.org/2000/svg"
 width="122.000000pt" height="112.000000pt" viewBox="0 0 122.000000 112.000000"
 preserveAspectRatio="xMidYMid meet">
<metadata>
Created by potrace 1.16, written by Peter Selinger 2001-2019
</metadata>
<g transform="translate(0.000000,112.000000) scale(0.100000,-0.100000)"
fill="#000000" stroke="none">
<path d="M276 1038 c-42 -57 -46 -93 -46 -470 l0 -358 -45 0 c-85 0 -141 -41
-127 -92 17 -66 147 -60 202 9 l19 24 58 -25 c88 -37 238 -60 388 -61 148 0
232 15 323 56 34 16 65 29 68 29 7 0 34 27 34 34 0 3 -16 6 -35 6 -19 0 -35
-4 -35 -9 0 -5 -21 -17 -47 -26 -108 -39 -508 -26 -672 22 l-62 18 3 396 c3
374 4 398 22 418 35 39 70 23 82 -37 9 -42 24 -41 24 2 0 52 -41 96 -90 96
-32 0 -43 -6 -64 -32z"/>
<path d="M563 1023 c-7 -3 -13 -17 -13 -33 0 -22 -7 -30 -32 -41 -40 -17 -98
-67 -98 -85 0 -20 4 -18 56 21 25 19 50 35 55 35 5 0 9 -66 9 -153 l0 -153
-32 -9 c-18 -6 -33 -14 -33 -20 0 -5 15 -11 33 -13 l32 -3 0 -63 0 -63 -55 -7
c-138 -16 -208 -92 -142 -154 26 -25 112 -58 177 -68 31 -5 44 -13 51 -31 9
-25 29 -23 29 3 0 11 24 14 133 14 207 0 312 31 385 114 42 49 57 99 43 146
-25 83 -115 133 -281 154 l-94 12 44 17 c106 41 190 130 193 205 3 89 -81 144
-228 150 -49 2 -114 0 -142 -6 -48 -8 -53 -7 -53 8 0 19 -17 30 -37 23z m343
-93 c46 -23 65 -50 57 -81 -13 -48 -141 -133 -276 -184 -105 -39 -98 -48 -95
128 l3 152 35 7 c19 4 79 5 132 3 76 -2 108 -8 144 -25z m-21 -356 c123 -25
215 -85 215 -139 0 -86 -153 -152 -397 -171 l-90 -7 -5 79 c-3 44 -4 81 -3 82
4 4 180 -16 213 -25 12 -3 22 -1 22 5 0 11 -82 29 -178 38 l-63 7 3 71 c3 65
5 71 28 78 33 9 167 0 255 -18z m-335 -229 c0 -87 1 -87 -103 -55 -68 21 -93
40 -84 64 8 20 59 45 110 56 80 15 77 18 77 -65z"/>
</g>
</svg>
